<svg width="121" height="32" viewBox="0 0 121 32" fill="none" xmlns="http://www.w3.org/2000/svg">
<path fill-rule="evenodd" clip-rule="evenodd" d="M46.2457 22.4559H43.0302L38.4506 9.49587H40.822L44.4822 20.1774H44.8489L48.6372 9.49587H50.9785L46.2457 22.4559ZM56.9825 15.746L62.9387 22.4559H60.0347L55.1813 16.9041H54.6286V22.4559H52.423V9.49587H54.6286V14.7713H55.1612L59.7584 9.49587H62.479L56.9825 15.746ZM69.2793 22.4559H71.4874V11.5181H77.5542V22.4559H79.7598V9.49587H69.2793V22.4559ZM84.1962 22.0062C83.4367 21.6027 82.8064 20.9932 82.3775 20.2477C81.9344 19.4665 81.7089 18.5808 81.7243 17.6828C81.7093 16.7857 81.9348 15.901 82.3775 15.1205C82.8064 14.375 83.4367 13.7655 84.1962 13.362C85.0127 12.9442 85.9168 12.7263 86.834 12.7263C87.7511 12.7263 88.6552 12.9442 89.4717 13.362C90.2319 13.7655 90.8631 14.3749 91.293 15.1205C91.7356 15.901 91.9611 16.7857 91.9461 17.6828C91.9608 18.5807 91.7353 19.4662 91.293 20.2477C90.8631 20.9933 90.2319 21.6027 89.4717 22.0062C88.6547 22.4222 87.7508 22.6391 86.834 22.6391C85.9171 22.6391 85.0133 22.4222 84.1962 22.0062ZM88.9291 19.8734C89.2037 19.5795 89.4168 19.2336 89.5557 18.8561C89.6946 18.4786 89.7566 18.0771 89.738 17.6753C89.7563 17.2739 89.6941 16.8729 89.5552 16.4958C89.4163 16.1188 89.2034 15.7733 88.9291 15.4797C88.3637 14.9427 87.6137 14.6433 86.834 14.6433C86.0542 14.6433 85.3042 14.9427 84.7389 15.4797C84.4645 15.7733 84.2516 16.1188 84.1127 16.4958C83.9738 16.8729 83.9116 17.2739 83.93 17.6753C83.9113 18.0771 83.9733 18.4786 84.1122 18.8561C84.2511 19.2336 84.4642 19.5795 84.7389 19.8734C85.3042 20.4104 86.0542 20.7098 86.834 20.7098C87.6137 20.7098 88.3637 20.4104 88.9291 19.8734ZM97.9174 19.4313C98.2609 19.362 98.5973 19.261 98.9223 19.1298L98.9122 22.4559H101.025V12.8973H98.9122V17.2608C98.341 17.5615 97.7008 17.707 97.0558 17.6829C96.8062 17.6999 96.5559 17.6639 96.3212 17.5773C96.0866 17.4907 95.8729 17.3555 95.6942 17.1804C95.3654 16.7711 95.2046 16.252 95.2445 15.7284V12.8973H93.1318V15.7284C93.1335 16.9376 93.4484 17.8771 94.0764 18.547C94.7044 19.2169 95.6046 19.5519 96.7769 19.5519C97.1603 19.5517 97.5425 19.5113 97.9174 19.4313ZM107.86 22.4559H105.743V14.8266H102.437V12.8973H111.169V14.8266H107.86V22.4559ZM120.431 17.0875C120.429 15.7025 120.077 14.6273 119.373 13.8619C118.668 13.0949 117.705 12.7122 116.482 12.7139C115.589 12.6963 114.711 12.9399 113.955 13.4148C113.249 13.8465 112.734 14.5297 112.513 15.3265L114.46 15.6556C114.63 15.3264 114.884 15.0475 115.196 14.8467C115.546 14.6223 115.956 14.5077 116.371 14.5176C116.624 14.5063 116.876 14.5506 117.11 14.6474C117.343 14.7442 117.552 14.8911 117.723 15.0778C118.079 15.5018 118.283 16.0321 118.303 16.5851H116.233C114.862 16.5834 113.817 16.8555 113.098 17.4015C112.755 17.6497 112.478 17.9778 112.291 18.3574C112.104 18.7369 112.012 19.1564 112.023 19.5795C112.014 20.1386 112.163 20.6888 112.453 21.1672C112.736 21.6345 113.148 22.011 113.638 22.2524C114.173 22.5144 114.761 22.6461 115.357 22.6368C116.017 22.6546 116.668 22.4801 117.231 22.1343C117.717 21.8386 118.127 21.4324 118.426 20.9486L118.868 22.4559H120.431V17.0875ZM118.316 18.2481C118.349 18.9448 118.104 19.6261 117.635 20.1422V20.1397C117.406 20.3826 117.129 20.5739 116.82 20.7008C116.512 20.8278 116.18 20.8874 115.846 20.8758C115.406 20.8995 114.971 20.7699 114.615 20.509C114.464 20.3905 114.343 20.2375 114.263 20.0626C114.183 19.8877 114.146 19.6962 114.156 19.5041C114.157 18.6668 114.874 18.2481 116.306 18.2481H118.316Z" fill="black"/>
<mask id="mask0" mask-type="alpha" maskUnits="userSpaceOnUse" x="4" y="2" width="27" height="27">
<path d="M4 15.9998C4 9.87273 4 6.80794 5.90419 4.90376C7.80837 2.99957 10.8732 2.99957 17.0002 2.99957C23.1273 2.99957 26.1946 2.99957 28.0988 4.90376C30.0029 6.80794 30.0004 9.87273 30.0004 15.9998C30.0004 22.1268 30.0004 25.1941 28.0988 27.0983C26.1971 29.0025 23.1298 29 17.0002 29C10.8706 29 7.80837 29 5.90419 27.0983C4 25.1967 4 22.1294 4 15.9998Z" fill="#0077FF"/>
</mask>
<g mask="url(#mask0)">
<path d="M4.00002 15.9998C4.00002 9.87273 4.00002 6.80794 5.9042 4.90376C7.80839 2.99957 10.8732 2.99957 17.0002 2.99957C23.1273 2.99957 26.1946 2.99957 28.0988 4.90376C30.003 6.80794 30.0004 9.87273 30.0004 15.9998C30.0004 22.1268 30.0004 25.1941 28.0988 27.0983C26.1971 29.0025 23.1298 29 17.0002 29C10.8707 29 7.80839 29 5.9042 27.0983C4.00002 25.1967 4.00002 22.1294 4.00002 15.9998Z" fill="#0077FF"/>
<path d="M3.74879 19.6399C3.74879 15.3517 3.74879 13.2063 5.08272 11.8724C6.41666 10.5385 8.54945 10.5359 12.8401 10.5359H21.1603C25.451 10.5359 27.5963 10.5359 28.9278 11.8674C30.2592 13.1988 30.2617 15.3467 30.2617 19.6348V27.96C30.2617 32.2507 30.2617 34.396 28.9278 35.73C27.5938 37.0639 25.451 37.0614 21.1603 37.0614H12.8401C8.54945 37.0614 6.40661 37.0614 5.07268 35.73C3.73874 34.3986 3.74879 32.2507 3.74879 27.96V19.6399Z" fill="#30DEC1"/>
<path d="M16.94 23.0965L17.8167 24.0561L17.877 24.0034L18.1282 23.7873C18.3794 23.5964 18.7311 23.3176 19.2109 22.9885C20.5493 22.0769 21.9718 21.2955 23.4589 20.6547C28.4022 18.5169 33.8574 17.8514 39.1697 18.738L39.5741 16.1932C33.7846 15.2303 27.8402 15.955 22.4515 18.2808C20.8117 18.9876 19.243 19.849 17.7664 20.8532C17.2288 21.2225 16.8118 21.539 16.528 21.7676L16.1989 22.0389L16.111 22.1193C16.1014 22.1263 16.0921 22.1339 16.0833 22.1419C16.0833 22.1419 16.0708 22.1545 16.94 23.0965ZM-5.21944 18.7254C0.397653 17.5146 5.72334 18.836 9.70254 20.509C11.341 21.1994 12.9226 22.0176 14.4329 22.9558C14.9931 23.305 15.4377 23.6014 15.7216 23.8074L16.0482 24.0587L16.126 24.1164H16.1436L16.9374 23.1116L17.7313 22.1067L17.7011 22.0866C17.6785 22.0665 17.6433 22.0414 17.6006 22.0088L17.2188 21.7324C16.8922 21.5013 16.4149 21.1747 15.807 20.7954C14.1775 19.776 12.4707 18.8857 10.7024 18.1326C6.45186 16.3464 0.56094 14.8442 -5.76206 16.2058L-5.21944 18.7254ZM16.94 23.0965L16.1461 24.1014L17.0053 24.7746L17.8167 24.0561L16.94 23.0965Z" fill="white"/>
</g>
</svg>
