<svg width="24" height="24" viewBox="0 0 24 24" fill="none" xmlns="http://www.w3.org/2000/svg">
<path d="M1.12242 12.7025C0.72954 13.0926 0.728022 13.7281 1.11952 14.1196L5.2903 18.2903C5.6818 18.6818 6.31729 18.6803 6.7074 18.2874C7.09557 17.8965 7.09485 17.2649 6.7053 16.8753L2.53452 12.7046C2.14498 12.315 1.51334 12.3143 1.12242 12.7025ZM22.9501 6.29012C22.5594 5.89947 21.9233 5.89689 21.5328 6.28773L12.3679 15.4613C11.9771 15.8525 11.343 15.8523 10.9525 15.4608L8.20206 12.7038C7.81361 12.3144 7.18116 12.3143 6.78952 12.7004C6.39429 13.0901 6.38955 13.7296 6.78202 14.1221L10.9528 18.2928C11.3433 18.6834 11.9765 18.6834 12.367 18.2928L22.9528 7.70706C23.3433 7.31654 23.3406 6.68065 22.9501 6.29012ZM17.2953 7.70457C17.6848 7.31502 17.6856 6.68339 17.2974 6.29246C16.9073 5.89958 16.2718 5.89807 15.8803 6.28957L10.9495 11.2203C10.558 11.6118 10.5595 12.2473 10.9524 12.6374C11.3433 13.0256 11.975 13.0249 12.3645 12.6353L17.2953 7.70457Z" fill="#0086C1"/>
</svg>
